<svg width="752" height="509" viewBox="0 0 752 509" fill="none" xmlns="http://www.w3.org/2000/svg">
<g clip-path="url(#clip0_212_77)">
<path d="M117.721 476.1V502.448H111.691V491.715H93.7361V502.448H87.7061V476.1H93.7361V486.45H111.691V476.1H117.721Z" fill="#9B744A"/>
<path d="M138.129 489.262C138.129 480.465 144.609 475.267 154.869 475.267C165.129 475.267 171.609 480.465 171.609 489.262C171.609 498.06 165.129 503.257 154.869 503.257C144.609 503.257 138.129 498.06 138.129 489.262ZM165.489 489.262C165.489 483.615 161.394 480.465 154.869 480.465C148.344 480.465 144.249 483.615 144.249 489.262C144.249 494.91 148.321 498.06 154.869 498.06C161.416 498.06 165.489 494.91 165.489 489.262ZM151.539 473.085L154.891 469.552L158.311 473.085H163.756L157.996 467.032H151.854L146.094 473.085H151.516H151.539Z" fill="#9B744A"/>
<path d="M217.261 481.275H205.741V502.425H199.711V481.275H188.281V476.077H217.261V481.275Z" fill="#9B744A"/>
<path d="M263.543 497.385V502.425H236.408V476.077H263.161V481.117H242.393V486.54H259.741V491.58H242.393V497.385H263.543Z" fill="#9B744A"/>
<path d="M308.43 497.227V502.425H283.793V476.077H289.823V497.227H308.453H308.43Z" fill="#9B744A"/>
<path d="M511.988 493.785L517.478 496.53C515.003 500.265 509.918 503.258 503.033 503.258C493.133 503.258 486.698 498.038 486.698 489.263C486.698 480.488 493.133 475.268 503.303 475.268C509.918 475.268 515.003 478.305 517.411 481.973L511.876 484.718C509.986 481.793 507.128 480.465 503.213 480.465C496.958 480.465 492.818 483.48 492.818 489.263C492.818 495.045 496.958 498.06 503.213 498.06C507.128 498.06 510.031 496.778 511.988 493.763V493.785Z" fill="#9B744A"/>
<path d="M558.069 496.868H542.162L539.349 502.448H532.914L546.887 476.1H553.479L567.429 502.448H560.927L558.114 496.868H558.069ZM555.549 491.963L550.104 481.23L544.659 491.963H555.572H555.549Z" fill="#9B744A"/>
<path d="M592.02 481.275V487.373H609.413V492.57H592.02V502.425H585.99V476.078H612.63V481.275H592.02Z" fill="#9B744A"/>
<path d="M659.319 497.385V502.425H632.184V476.078H658.936V481.118H638.169V486.54H655.516V491.58H638.169V497.385H659.319ZM645.954 473.085H641.431L646.966 467.033H654.684L645.954 473.085Z" fill="#9B744A"/>
<path d="M393.121 505.147C393.121 500.557 396.249 494.077 396.474 490.5C393.459 492.39 389.431 498.442 385.404 500.67C384.729 501.12 384.166 501.232 383.514 501.232C381.624 501.232 380.049 499.455 380.049 497.542C380.049 496.305 380.499 495.202 381.826 494.527C385.741 492.187 392.896 491.625 396.136 490.05C392.896 488.475 385.741 487.822 381.826 485.572C380.589 484.897 380.049 483.772 380.049 482.67C380.049 480.78 381.624 478.867 383.514 478.867C384.076 478.867 384.751 478.98 385.404 479.43C389.431 481.657 393.459 487.597 396.474 489.6C396.249 486.022 393.121 479.542 393.121 474.952C393.121 472.612 394.809 471.375 396.699 471.375C398.589 471.375 400.276 472.612 400.276 474.952C400.276 479.542 397.149 486.022 396.924 489.6C399.939 487.71 403.966 481.657 407.994 479.43C408.669 478.98 409.344 478.867 409.884 478.867C411.886 478.867 413.349 480.757 413.349 482.557C413.349 483.795 412.899 484.897 411.549 485.572C407.634 487.912 400.479 488.475 397.239 490.05C400.479 491.625 407.634 492.165 411.549 494.527C413.551 495.652 413.664 497.88 412.899 499.342C412.224 500.467 411.121 501.232 409.884 501.232C409.209 501.232 408.646 501.12 407.994 500.67C403.966 498.442 399.939 492.39 396.924 490.5C397.149 494.077 400.276 500.557 400.276 505.147C400.276 507.487 398.589 508.725 396.699 508.725C394.809 508.725 393.121 507.487 393.121 505.147Z" fill="#9B744A"/>
<path d="M0 402.907C0 367.875 0 332.865 0 297.832C5.715 297.112 11.4075 296.415 17.1225 295.74C27.2025 305.977 37.2825 316.62 47.385 327.667C56.5425 315.202 65.7 302.445 74.8575 289.417C79.875 288.922 84.8925 288.427 89.91 287.955C89.9775 326.227 90.0675 364.5 90.135 402.795C84.015 402.795 77.8725 402.795 71.7525 402.795C71.685 368.235 71.6175 333.697 71.5725 299.137C60.165 314.527 48.735 329.535 37.3275 344.092C37.08 344.092 36.8325 344.115 36.585 344.137C25.2225 331.762 13.8825 319.86 2.565 308.52C2.565 339.975 2.565 371.43 2.565 402.862C1.71 402.862 0.855 402.862 0 402.862L0 402.907Z" fill="#553725"/>
<path d="M170.213 281.43C176.4 281.002 182.587 280.62 188.752 280.237C188.82 306 188.865 331.785 188.933 357.547C188.978 378.315 183.15 404.212 150.593 404.122C119.093 403.987 112.702 379.417 112.657 359.685C112.612 335.092 112.545 310.5 112.5 285.907C118.62 285.367 124.74 284.85 130.882 284.355C130.95 313.56 131.017 342.787 131.085 371.992C131.107 384.39 133.56 400.995 150.907 400.995C168.547 400.995 170.46 384.097 170.438 371.205C170.37 341.28 170.303 311.355 170.235 281.407L170.213 281.43Z" fill="#553725"/>
<path d="M211.793 402.682C211.703 361.417 211.613 320.152 211.546 278.887C218.476 278.505 225.428 278.167 232.381 277.83C266.041 276.21 282.083 295.155 282.106 317.16C282.128 338.107 268.876 355.725 242.348 360.765C242.348 361.012 242.348 361.237 242.348 361.485C278.551 363.465 280.103 393.007 285.998 402.615C279.361 402.615 272.723 402.615 266.108 402.615C260.978 393.03 262.441 366.547 236.341 362.992C236.341 362.092 236.341 361.192 236.341 360.292C257.153 354.96 262.553 335.497 262.531 319.387C262.508 300.375 253.711 280.192 232.291 281.205C231.481 281.25 230.671 281.272 229.883 281.317C229.951 321.75 230.041 362.182 230.108 402.637C224.033 402.637 217.958 402.637 211.861 402.637L211.793 402.682Z" fill="#553725"/>
<path d="M302.851 402.66C302.806 360.225 302.761 317.79 302.716 275.355C308.453 275.22 314.191 275.085 319.928 274.995C330.053 288.427 340.178 301.972 350.303 315.562C359.506 301.86 368.708 288.135 377.933 274.477C382.973 274.477 388.013 274.477 393.031 274.522C393.031 317.227 393.031 359.955 393.008 402.66C386.888 402.66 380.746 402.66 374.626 402.66C374.626 363.487 374.626 324.315 374.626 285.142C363.151 301.387 351.676 317.7 340.223 333.99C339.976 333.99 339.728 333.99 339.458 333.99C328.073 318.757 316.688 303.615 305.303 288.63C305.348 326.632 305.393 364.657 305.416 402.66C304.561 402.66 303.706 402.66 302.851 402.66Z" fill="#553725"/>
<path d="M473.536 276.03C479.724 276.232 485.911 276.457 492.099 276.682C492.054 303.187 492.009 329.692 491.964 356.22C491.941 377.527 486.001 404.055 453.444 404.122C421.944 404.145 415.621 377.145 415.644 355.477C415.644 328.567 415.666 301.635 415.689 274.725C421.831 274.815 427.974 274.905 434.116 275.017C434.094 306.517 434.071 338.017 434.026 369.495C434.026 382.86 436.411 400.815 453.759 400.815C471.399 400.815 473.379 383.197 473.401 369.765C473.446 338.512 473.491 307.26 473.536 276.03Z" fill="#553725"/>
<path d="M514.666 402.682C514.734 361.012 514.823 319.32 514.891 277.65C521.843 277.965 528.774 278.302 535.726 278.685C569.364 280.597 585.316 300.24 585.271 321.12C585.226 341.032 571.906 357.255 545.379 361.417C545.379 361.665 545.379 361.89 545.379 362.137C581.559 365.4 582.999 393.57 588.871 402.75C582.234 402.75 575.596 402.75 568.981 402.75C563.874 393.457 565.449 367.875 539.371 363.465C539.371 362.587 539.371 361.687 539.371 360.81C560.184 356.197 565.651 337.657 565.696 322.042C565.741 303.682 557.034 283.275 535.614 282.105C534.804 282.06 533.993 282.015 533.206 281.992C533.116 322.245 533.048 362.497 532.958 402.75C526.883 402.75 520.808 402.75 514.711 402.75L514.666 402.682Z" fill="#553725"/>
<path d="M669.938 395.595C669.128 397.98 668.318 400.387 667.508 402.795C646.853 402.772 626.198 402.75 605.543 402.727C605.633 362.88 605.723 323.032 605.813 283.185C625.41 284.67 644.985 286.357 664.56 288.225C664.56 290.407 664.56 292.612 664.56 294.795C651.173 292.32 637.763 289.89 624.353 287.527C624.33 298.597 624.308 309.667 624.285 320.737C637.043 321.48 649.8 322.267 662.558 323.1C662.558 324.09 662.558 325.08 662.558 326.07C649.8 325.26 637.043 324.495 624.285 323.797C624.218 349.155 624.173 374.512 624.105 399.87C639.383 398.385 654.66 396.967 669.938 395.595Z" fill="#553725"/>
<path d="M730.733 328.185C730.733 310.163 726.099 297.135 713.319 294.885C712.711 294.66 711.969 294.57 711.361 294.503C710.619 294.413 710.011 294.345 709.404 294.458C701.281 294.345 697.209 300.488 696.444 309.06C696.286 309.848 696.286 310.635 696.286 311.445C696.241 339.705 748.914 335.205 751.321 370.215C751.479 371.588 751.636 372.938 751.478 374.445C750.736 384.458 743.784 403.83 713.341 403.988C693.901 404.055 678.376 393.188 678.421 371.003C678.421 368.235 678.578 365.648 679.186 362.588C680.086 362.61 680.986 362.655 681.909 362.678C681.301 365.4 681.144 368.168 681.144 370.755C681.099 390.105 694.059 400.995 711.834 400.973C726.459 400.973 733.388 392.693 734.603 383.22C734.896 382.005 735.054 380.61 735.054 379.238C735.054 369.113 727.988 361.778 715.344 355.815C699.234 347.985 680.739 340.493 680.761 319.995C680.761 306.518 688.501 289.17 713.161 292.028C739.013 295.11 748.014 311.873 748.014 326.768C748.014 327.825 748.014 328.883 747.856 329.625C742.141 329.13 736.426 328.658 730.711 328.185H730.733Z" fill="#553725"/>
</g>
<path d="M372.785 139.728C372.785 109.75 390.24 91.3038 407.267 80.5241C415.773 75.139 424.253 71.6041 430.59 69.4156C433.764 68.3193 436.417 67.5551 438.287 67.0629C439.223 66.8167 439.964 66.6383 440.479 66.5199C440.735 66.4608 440.936 66.4163 441.075 66.3862C441.145 66.3711 441.2 66.3599 441.239 66.3517C441.259 66.3477 441.275 66.3445 441.286 66.3421C441.292 66.341 441.296 66.3401 441.3 66.3393C441.302 66.339 441.305 66.3382 441.306 66.338C441.307 66.3376 441.309 66.3374 441.991 69.7188L442.674 73.0996C442.674 73.0997 442.673 73.1006 442.671 73.101C442.667 73.1018 442.658 73.1026 442.647 73.1051C442.622 73.1101 442.583 73.1182 442.528 73.1299C442.419 73.1534 442.251 73.1913 442.026 73.2429C441.577 73.3463 440.905 73.508 440.043 73.735C438.317 74.189 435.832 74.9033 432.842 75.936C426.85 78.0053 418.89 81.3309 410.958 86.3527C395.108 96.3874 379.685 112.945 379.685 139.728V168.844H372.785V139.728Z" fill="#553725"/>
<path d="M372.514 139.728C372.514 112.945 357.091 96.3874 341.24 86.3527C333.308 81.3309 325.349 78.0053 319.357 75.936C316.367 74.9033 313.881 74.189 312.155 73.735C311.293 73.508 310.621 73.3463 310.172 73.2429C309.948 73.1913 309.779 73.1534 309.671 73.1299C309.616 73.1182 309.576 73.1101 309.552 73.1051C309.54 73.1026 309.531 73.1018 309.527 73.101L309.524 73.0996C309.525 73.0998 309.527 73.1002 310.208 69.7188C310.889 66.3374 310.891 66.3376 310.893 66.338C310.894 66.3381 310.895 66.339 310.897 66.3393C310.901 66.3401 310.906 66.3409 310.912 66.3421C310.924 66.3445 310.94 66.3477 310.959 66.3517C310.998 66.3599 311.053 66.3711 311.123 66.3862C311.263 66.4163 311.463 66.4608 311.72 66.5199C312.234 66.6383 312.976 66.8167 313.911 67.0629C315.782 67.5551 318.434 68.3193 321.609 69.4156C327.946 71.6041 336.425 75.139 344.931 80.5241C361.958 91.3038 379.413 109.75 379.413 139.728V168.844H372.514V139.728Z" fill="#553725"/>
<path d="M438.269 69.2054C438.269 34.8176 410.351 6.89947 375.963 6.89945C341.575 6.89945 313.657 34.8176 313.657 69.2054V165.602H438.269V69.2054ZM445.169 172.5H306.758V69.2054C306.758 31.0076 337.765 0 375.963 0C414.161 2.03972e-05 445.169 31.0076 445.169 69.2054V172.5Z" fill="#553725"/>
<path d="M346.534 11.2178V168.847H339.635V11.2178H346.534Z" fill="#553725"/>
<path d="M412.286 11.2178V168.847H405.387V11.2178H412.286Z" fill="#553725"/>
<defs>
<clipPath id="clip0_212_77">
<rect width="751.545" height="234.27" fill="white" transform="translate(0 274.455)"/>
</clipPath>
</defs>
</svg>
