<svg width="669" height="210" viewBox="0 0 669 210" fill="none" xmlns="http://www.w3.org/2000/svg">
<g clip-path="url(#clip0_205_1616)">
<path d="M105.13 180.18V203.6H99.77V194.06H83.81V203.6H78.45V180.18H83.81V189.38H99.77V180.18H105.13Z" fill="#9B744A"/>
<path d="M123.27 191.88C123.27 184.06 129.03 179.44 138.15 179.44C147.27 179.44 153.03 184.06 153.03 191.88C153.03 199.7 147.27 204.32 138.15 204.32C129.03 204.32 123.27 199.7 123.27 191.88ZM147.59 191.88C147.59 186.86 143.95 184.06 138.15 184.06C132.35 184.06 128.71 186.86 128.71 191.88C128.71 196.9 132.33 199.7 138.15 199.7C143.97 199.7 147.59 196.9 147.59 191.88ZM135.19 177.5L138.17 174.36L141.21 177.5H146.05L140.93 172.12H135.47L130.35 177.5H135.17H135.19Z" fill="#9B744A"/>
<path d="M193.61 184.78H183.37V203.58H178.01V184.78H167.85V180.16H193.61V184.78Z" fill="#9B744A"/>
<path d="M234.75 199.1V203.58H210.63V180.16H234.41V184.64H215.95V189.46H231.37V193.94H215.95V199.1H234.75Z" fill="#9B744A"/>
<path d="M274.65 198.96V203.58H252.75V180.16H258.11V198.96H274.67H274.65Z" fill="#9B744A"/>
<path d="M455.59 195.9L460.47 198.34C458.27 201.66 453.75 204.32 447.63 204.32C438.83 204.32 433.11 199.68 433.11 191.88C433.11 184.08 438.83 179.44 447.87 179.44C453.75 179.44 458.27 182.14 460.41 185.4L455.49 187.84C453.81 185.24 451.27 184.06 447.79 184.06C442.23 184.06 438.55 186.74 438.55 191.88C438.55 197.02 442.23 199.7 447.79 199.7C451.27 199.7 453.85 198.56 455.59 195.88V195.9Z" fill="#9B744A"/>
<path d="M496.55 198.64H482.41L479.91 203.6H474.19L486.61 180.18H492.47L504.87 203.6H499.09L496.59 198.64H496.55ZM494.31 194.28L489.47 184.74L484.63 194.28H494.33H494.31Z" fill="#9B744A"/>
<path d="M526.73 184.78V190.2H542.19V194.82H526.73V203.58H521.37V180.16H545.05V184.78H526.73Z" fill="#9B744A"/>
<path d="M586.55 199.1V203.58H562.43V180.16H586.21V184.64H567.75V189.46H583.17V193.94H567.75V199.1H586.55ZM574.67 177.5H570.65L575.57 172.12H582.43L574.67 177.5Z" fill="#9B744A"/>
<path d="M349.93 206C349.93 201.92 352.71 196.16 352.91 192.98C350.23 194.66 346.65 200.04 343.07 202.02C342.47 202.42 341.97 202.52 341.39 202.52C339.71 202.52 338.31 200.94 338.31 199.24C338.31 198.14 338.71 197.16 339.89 196.56C343.37 194.48 349.73 193.98 352.61 192.58C349.73 191.18 343.37 190.6 339.89 188.6C338.79 188 338.31 187 338.31 186.02C338.31 184.34 339.71 182.64 341.39 182.64C341.89 182.64 342.49 182.74 343.07 183.14C346.65 185.12 350.23 190.4 352.91 192.18C352.71 189 349.93 183.24 349.93 179.16C349.93 177.08 351.43 175.98 353.11 175.98C354.79 175.98 356.29 177.08 356.29 179.16C356.29 183.24 353.51 189 353.31 192.18C355.99 190.5 359.57 185.12 363.15 183.14C363.75 182.74 364.35 182.64 364.83 182.64C366.61 182.64 367.91 184.32 367.91 185.92C367.91 187.02 367.51 188 366.31 188.6C362.83 190.68 356.47 191.18 353.59 192.58C356.47 193.98 362.83 194.46 366.31 196.56C368.09 197.56 368.19 199.54 367.51 200.84C366.91 201.84 365.93 202.52 364.83 202.52C364.23 202.52 363.73 202.42 363.15 202.02C359.57 200.04 355.99 194.66 353.31 192.98C353.51 196.16 356.29 201.92 356.29 206C356.29 208.08 354.79 209.18 353.11 209.18C351.43 209.18 349.93 208.08 349.93 206Z" fill="#9B744A"/>
<path d="M0.490021 115.12C0.490021 83.9801 0.490021 52.8601 0.490021 21.7201C5.57002 21.0801 10.63 20.4601 15.71 19.8601C24.67 28.9601 33.63 38.4201 42.61 48.2401C50.75 37.1601 58.89 25.8201 67.03 14.2401C71.49 13.8001 75.95 13.3601 80.41 12.9401C80.47 46.9601 80.55 80.9801 80.61 115.02C75.17 115.02 69.71 115.02 64.27 115.02C64.21 84.3001 64.15 53.6001 64.11 22.8801C53.97 36.5601 43.81 49.9001 33.67 62.8401C33.45 62.8401 33.23 62.8601 33.01 62.8801C22.91 51.8801 12.83 41.3001 2.77002 31.2201C2.77002 59.1801 2.77002 87.1401 2.77002 115.08C2.01002 115.08 1.25002 115.08 0.490021 115.08L0.490021 115.12Z" fill="#553725"/>
<path d="M151.79 7.1402C157.29 6.7602 162.79 6.4202 168.27 6.0802C168.33 28.9802 168.37 51.9002 168.43 74.8002C168.47 93.2602 163.29 116.28 134.35 116.2C106.35 116.08 100.67 94.2402 100.63 76.7002C100.59 54.8402 100.53 32.9802 100.49 11.1202C105.93 10.6402 111.37 10.1802 116.83 9.7402C116.89 35.7002 116.95 61.6802 117.01 87.6402C117.03 98.6602 119.21 113.42 134.63 113.42C150.31 113.42 152.01 98.4002 151.99 86.9402C151.93 60.3402 151.87 33.7402 151.81 7.1202L151.79 7.1402Z" fill="#553725"/>
<path d="M188.75 114.92C188.67 78.2402 188.59 41.5602 188.53 4.88018C194.69 4.54018 200.87 4.24018 207.05 3.94018C236.97 2.50018 251.23 19.3402 251.25 38.9002C251.27 57.5202 239.49 73.1802 215.91 77.6602C215.91 77.8802 215.91 78.0802 215.91 78.3002C248.09 80.0602 249.47 106.32 254.71 114.86C248.81 114.86 242.91 114.86 237.03 114.86C232.47 106.34 233.77 82.8002 210.57 79.6402C210.57 78.8402 210.57 78.0402 210.57 77.2402C229.07 72.5002 233.87 55.2002 233.85 40.8802C233.83 23.9802 226.01 6.04018 206.97 6.94018C206.25 6.98018 205.53 7.00018 204.83 7.04018C204.89 42.9802 204.97 78.9202 205.03 114.88C199.63 114.88 194.23 114.88 188.81 114.88L188.75 114.92Z" fill="#553725"/>
<path d="M269.69 114.9C269.65 77.1801 269.61 39.4601 269.57 1.74008C274.67 1.62008 279.77 1.50008 284.87 1.42008C293.87 13.3601 302.87 25.4001 311.87 37.4801C320.05 25.3001 328.23 13.1001 336.43 0.960083C340.91 0.960083 345.39 0.960083 349.85 1.00008C349.85 38.9601 349.85 76.9401 349.83 114.9C344.39 114.9 338.93 114.9 333.49 114.9C333.49 80.0801 333.49 45.2601 333.49 10.4401C323.29 24.8801 313.09 39.3801 302.91 53.8601C302.69 53.8601 302.47 53.8601 302.23 53.8601C292.11 40.3201 281.99 26.8601 271.87 13.5401C271.91 47.3201 271.95 81.1201 271.97 114.9C271.21 114.9 270.45 114.9 269.69 114.9Z" fill="#553725"/>
<path d="M421.41 2.3403C426.91 2.5203 432.41 2.7203 437.91 2.9203C437.87 26.4803 437.83 50.0403 437.79 73.6203C437.77 92.5603 432.49 116.14 403.55 116.2C375.55 116.22 369.93 92.2203 369.95 72.9603C369.95 49.0403 369.97 25.1003 369.99 1.1803C375.45 1.2603 380.91 1.3403 386.37 1.4403C386.35 29.4403 386.33 57.4403 386.29 85.4203C386.29 97.3003 388.41 113.26 403.83 113.26C419.51 113.26 421.27 97.6003 421.29 85.6603C421.33 57.8803 421.37 30.1003 421.41 2.3403Z" fill="#553725"/>
<path d="M457.97 114.92C458.03 77.8799 458.11 40.8199 458.17 3.77991C464.35 4.05991 470.51 4.35991 476.69 4.69991C506.59 6.39991 520.77 23.8599 520.73 42.4199C520.69 60.1199 508.85 74.5399 485.27 78.2399C485.27 78.4599 485.27 78.6599 485.27 78.8799C517.43 81.7799 518.71 106.82 523.93 114.98C518.03 114.98 512.13 114.98 506.25 114.98C501.71 106.72 503.11 83.9799 479.93 80.0599C479.93 79.2799 479.93 78.4799 479.93 77.6999C498.43 73.5999 503.29 57.1199 503.33 43.2399C503.37 26.9199 495.63 8.77991 476.59 7.73991C475.87 7.69991 475.15 7.65991 474.45 7.63991C474.37 43.4199 474.31 79.1999 474.23 114.98C468.83 114.98 463.43 114.98 458.01 114.98L457.97 114.92Z" fill="#553725"/>
<path d="M595.99 108.62C595.27 110.74 594.55 112.88 593.83 115.02C575.47 115 557.11 114.98 538.75 114.96C538.83 79.5403 538.91 44.1203 538.99 8.70032C556.41 10.0203 573.81 11.5203 591.21 13.1803C591.21 15.1203 591.21 17.0803 591.21 19.0203C579.31 16.8203 567.39 14.6603 555.47 12.5603C555.45 22.4003 555.43 32.2403 555.41 42.0803C566.75 42.7403 578.09 43.4403 589.43 44.1803C589.43 45.0603 589.43 45.9403 589.43 46.8203C578.09 46.1003 566.75 45.4203 555.41 44.8003C555.35 67.3403 555.31 89.8803 555.25 112.42C568.83 111.1 582.41 109.84 595.99 108.62Z" fill="#553725"/>
<path d="M650.03 48.6999C650.03 32.6799 645.91 21.0999 634.55 19.0999C634.01 18.8999 633.35 18.8199 632.81 18.7599C632.15 18.6799 631.61 18.6199 631.07 18.7199C623.85 18.6199 620.23 24.0799 619.55 31.6999C619.41 32.3999 619.41 33.0999 619.41 33.8199C619.37 58.9399 666.19 54.9399 668.33 86.0599C668.47 87.2799 668.61 88.4799 668.47 89.8199C667.81 98.7199 661.63 115.94 634.57 116.08C617.29 116.14 603.49 106.48 603.53 86.7599C603.53 84.2999 603.67 81.9998 604.21 79.2799C605.01 79.2999 605.81 79.3399 606.63 79.3599C606.09 81.7799 605.95 84.2399 605.95 86.5399C605.91 103.74 617.43 113.42 633.23 113.4C646.23 113.4 652.39 106.04 653.47 97.6199C653.73 96.5399 653.87 95.2999 653.87 94.0799C653.87 85.0799 647.59 78.5599 636.35 73.2599C622.03 66.2999 605.59 59.6399 605.61 41.4199C605.61 29.4399 612.49 14.0199 634.41 16.5599C657.39 19.2999 665.39 34.1999 665.39 47.4399C665.39 48.3799 665.39 49.3199 665.25 49.9799C660.17 49.5399 655.09 49.1199 650.01 48.6999H650.03Z" fill="#553725"/>
</g>
<defs>
<clipPath id="clip0_205_1616">
<rect width="669" height="210" fill="white"/>
</clipPath>
</defs>
</svg>
