<svg width="197" height="245" viewBox="0 0 197 245" fill="none" xmlns="http://www.w3.org/2000/svg">
<path fill-rule="evenodd" clip-rule="evenodd" d="M98.0723 0C152.203 2.89053e-05 196.145 43.9415 196.145 98.0723V244.453H0V98.0723C0 43.9415 43.9415 6.60706e-05 98.0723 0ZM9.77734 234.678H46.5908V120.965C36.1152 114.628 25.7719 110.345 17.8535 107.61C14.7222 106.529 11.9817 105.693 9.77734 105.071V234.678ZM56.3682 234.678H93.1836V198.011C93.1833 164.313 75.9535 142.038 56.3682 127.513V234.678ZM186.367 105.182C184.232 105.791 181.627 106.591 178.676 107.61C170.659 110.379 160.156 114.736 149.547 121.203V234.678H186.367V105.182ZM139.77 127.806C120.347 142.337 103.346 164.538 103.346 198.011V234.678H139.77V127.806ZM98.0723 9.77734C82.9926 9.77736 68.7914 13.5669 56.3682 20.2432V115.582C73.3865 126.835 90.3105 143.572 98.2646 167.711C106.158 143.758 122.884 127.094 139.77 115.844V20.2393C127.348 13.5654 113.149 9.77735 98.0723 9.77734ZM149.547 109.894C159.115 104.578 168.277 100.859 175.484 98.3701C179.939 96.8317 183.668 95.7547 186.314 95.0566C185.363 66.7659 171.077 41.8322 149.547 26.3467V109.894ZM46.5908 26.3516C25.0896 41.8194 10.8132 66.711 9.83203 94.958C9.93178 94.984 10.0336 95.009 10.1367 95.0361C12.7872 95.7336 16.5464 96.8166 21.0449 98.3701C28.1539 100.825 37.1644 104.476 46.5908 109.677V26.3516Z" fill="#553725"/>
</svg>
